<svg xmlns="http://www.w3.org/2000/svg" viewBox="0 0 100 100">
  <defs>
    <linearGradient id="heatGrad" x1="0%" y1="100%" x2="100%" y2="0%">
      <stop offset="0%" style="stop-color:#ef4444;stop-opacity:1" /> <!-- Red-500 -->
      <stop offset="50%" style="stop-color:#f97316;stop-opacity:1" /> <!-- Orange-500 -->
      <stop offset="100%" style="stop-color:#fbbf24;stop-opacity:1" /> <!-- Amber-400 -->
    </linearGradient>
  </defs>
  <!-- Stylized Flame Icon -->
  <path d="M50 90 C30 90 20 70 20 55 C20 35 40 10 50 10 C60 10 80 35 80 55 C80 70 70 90 50 90 Z" fill="url(#heatGrad)" />
  <path d="M50 90 C40 90 35 75 35 60 C35 45 45 25 50 25 C55 25 65 45 65 60 C65 75 60 90 50 90 Z" fill="#fff" opacity="0.2" />
  <!-- Inner Detail -->
  <path d="M50 80 Q45 70 45 60 Q45 50 50 40 Q55 50 55 60 Q55 70 50 80" fill="#fff" opacity="0.4" />
</svg>
