<svg xmlns="http://www.w3.org/2000/svg" viewBox="0 0 100 100">
  <!-- Indigo rounded background -->
  <rect x="5" y="5" width="90" height="90" rx="20" ry="20" fill="#4f46e5" />
  <!-- Clipboard-list path (Lucide clipboard-list, scaled to fit) -->
  <g transform="translate(20, 18) scale(2.5)" fill="none" stroke="#ffffff" stroke-width="2.2" stroke-linecap="round" stroke-linejoin="round">
    <rect width="8" height="4" x="8" y="2" rx="1" ry="1" />
    <path d="M16 4h2a2 2 0 0 1 2 2v14a2 2 0 0 1-2 2H6a2 2 0 0 1-2-2V6a2 2 0 0 1 2-2h2" />
    <path d="M12 11h4" />
    <path d="M12 16h4" />
    <path d="M8 11h.01" />
    <path d="M8 16h.01" />
  </g>
</svg>
