<svg xmlns="http://www.w3.org/2000/svg" viewBox="0 0 100 100">
  <!-- Indigo rounded background -->
  <rect x="5" y="5" width="90" height="90" rx="20" ry="20" fill="#4f46e5" />
  <!-- Book-open path (Lucide book-open, scaled to fit) -->
  <g transform="translate(20, 20) scale(2.5)" fill="none" stroke="#ffffff" stroke-width="2.2" stroke-linecap="round" stroke-linejoin="round">
    <path d="M12 7v14" />
    <path d="M3 18a1 1 0 0 1-1-1V4a1 1 0 0 1 1-1h5a4 4 0 0 1 4 4 4 4 0 0 1 4-4h5a1 1 0 0 1 1 1v13a1 1 0 0 1-1 1h-6a3 3 0 0 0-3 3 3 3 0 0 0-3-3z" />
  </g>
</svg>
